<svg width="118" height="136" viewBox="0 0 118 136" fill="none" xmlns="http://www.w3.org/2000/svg">
<path d="M81 43C81 41.8954 81.8954 41 83 41H106C107.105 41 108 41.8954 108 43V131C108 133.761 105.761 136 103 136H81V43Z" fill="#CC1212"/>
<path d="M0 68C0 66.8954 0.895431 66 2 66H25C26.1046 66 27 66.8954 27 68V136H4C1.79086 136 0 134.209 0 132V68Z" fill="#1818BD"/>
<path d="M54 77C54 75.8954 54.8954 75 56 75H79C80.1046 75 81 75.8954 81 77V136H54V77Z" fill="#1818BD"/>
<path d="M27 53C27 51.8954 27.8954 51 29 51H52C53.1046 51 54 51.8954 54 53V136H27V53Z" fill="#CC1212"/>
<path fill-rule="evenodd" clip-rule="evenodd" d="M72.5578 9.21546L77.3527 13.0374C78.4324 13.898 78.61 15.4709 77.7494 16.5506C76.8888 17.6303 75.3159 17.8079 74.2362 16.9473L74.1232 16.8573L73.7584 17.5352C73.104 18.751 71.588 19.2062 70.3722 18.5518C69.1563 17.8975 68.7012 16.3815 69.3555 15.1656L72.5578 9.21546ZM100.497 12.0145C101.232 10.8456 102.775 10.4936 103.944 11.2283C105.113 11.9631 105.465 13.5063 104.73 14.6753L102.32 18.5101C101.585 19.6791 100.042 20.0311 98.8727 19.2964C97.7037 18.5616 97.3517 17.0183 98.0864 15.8493L100.497 12.0145ZM34.7808 19.5162L39.6892 22.9477C40.8208 23.7388 41.0968 25.2975 40.3057 26.4291C39.5146 27.5606 37.9559 27.8367 36.8243 27.0455L35.7855 26.3193L34.0471 28.5252C33.1925 29.6097 31.6206 29.796 30.5362 28.9414C29.4517 28.0868 29.2654 26.5149 30.12 25.4304L33.3194 21.3706C33.3194 21.3706 33.3196 21.3703 35.2832 22.9177L33.3194 21.3706L34.7808 19.5162ZM78.7473 17.346C79.6079 16.2663 81.1809 16.0887 82.2605 16.9493L87.1684 20.8613C88.2481 21.7219 88.4257 23.2948 87.5651 24.3745C86.7045 25.4542 85.1316 25.6318 84.0519 24.7712L79.144 20.8592C78.0644 19.9986 77.8867 18.4257 78.7473 17.346ZM69.1746 20.7771C70.3904 21.4314 70.8456 22.9475 70.1912 24.1633L66.6241 30.7914C65.9698 32.0072 64.4537 32.4624 63.2379 31.8081C62.0221 31.1537 61.5669 29.6377 62.2212 28.4219L65.7884 21.7938C66.4427 20.5779 67.9587 20.1228 69.1746 20.7771ZM42.155 27.7219C42.9462 26.5904 44.5048 26.3143 45.6364 27.1054L51.5836 31.2632C52.7152 32.0543 52.9912 33.613 52.2001 34.7446C51.409 35.8762 49.8503 36.1522 48.7187 35.3611L42.7715 31.2033C41.64 30.4122 41.3639 28.8535 42.155 27.7219ZM96.7127 22.7328C97.8817 23.4675 98.2337 25.0108 97.499 26.1798L93.6005 32.3821L88.9598 28.6832C87.8801 27.8226 87.7025 26.2496 88.5631 25.1699C89.4237 24.0903 90.9966 23.9126 92.0763 24.7732L92.3435 24.9862L93.2657 23.519C94.0005 22.35 95.5438 21.998 96.7127 22.7328ZM27.2284 33.1387C28.3128 33.9933 28.4992 35.5652 27.6445 36.6497L21.2442 44.7713C20.3896 45.8558 18.8177 46.0421 17.7332 45.1875C16.6488 44.3329 16.4625 42.761 17.3171 41.6765L23.7174 33.5549C24.572 32.4704 26.144 32.2841 27.2284 33.1387ZM62.0403 34.0333C63.2561 34.6876 63.7113 36.2037 63.057 37.4195L59.942 43.2074L54.6659 39.5189C53.5344 38.7277 53.2583 37.1691 54.0494 36.0375C54.8406 34.9059 56.3992 34.6299 57.5308 35.421L58.2019 35.8902L58.6541 35.05C59.3084 33.8342 60.8245 33.379 62.0403 34.0333ZM14.4255 49.3848C15.5099 50.2394 15.6962 51.8113 14.8416 52.8958L11.6422 56.9556C11.6422 56.9556 11.642 56.9559 9.67845 55.4085L7.71491 53.861L10.9145 49.8009C11.7691 48.7165 13.341 48.5302 14.4255 49.3848ZM8.13105 57.372C7.04661 56.5174 6.8603 54.9455 7.71491 53.861L9.67845 55.4085L11.6422 56.9556C10.7876 58.04 9.21549 58.2266 8.13105 57.372Z" fill="#27CE4B"/>
<path d="M106.217 4.48973C107.595 3.80216 109.2 4.86366 109.107 6.40043L108.687 13.3159C108.594 14.8527 106.872 15.7121 105.588 14.8629L99.8085 11.0415C98.5243 10.1923 98.641 8.27135 100.018 7.58379L106.217 4.48973Z" fill="#27CE4B"/>
<path fill-rule="evenodd" clip-rule="evenodd" d="M107.689 13.2553L108.109 6.33982C108.155 5.57144 107.353 5.04069 106.664 5.38447L100.465 8.47853C99.7763 8.82231 99.718 9.78279 100.36 10.2074L106.139 14.0288C106.781 14.4534 107.642 14.0237 107.689 13.2553ZM109.107 6.40043C109.2 4.86366 107.595 3.80216 106.217 4.48973L100.018 7.58379C98.641 8.27135 98.5243 10.1923 99.8085 11.0415L105.588 14.8629C106.872 15.7121 108.594 14.8527 108.687 13.3159L109.107 6.40043Z" fill="#27CE4B"/>
</svg>
